<svg xmlns="http://www.w3.org/2000/svg" viewBox="0 0 512 512">
  <rect width="512" height="512" rx="112" fill="#121212"/>
  <path d="M352 240c-3.1 0-6.1.4-9 1.1C333.6 195.9 292.1 166 242 166c-59.5 0-109 41.5-121.5 97.4C80 274.6 48 312.4 48 358c0 51.9 42.1 94 94 94h210c49.7 0 90-40.3 90-90s-40.3-90-90-90z" fill="#3B82F6"/>
  <path d="M292 200c-3.1 0-6.1.4-9 1.1C273.6 155.9 232.1 126 182 126c-59.5 0-109 41.5-121.5 97.4C20 234.6 -12 272.4 -12 318c0 51.9 42.1 94 94 94h210c49.7 0 90-40.3 90-90s-40.3-90-90-90z" fill="#FFFFFF"/>
</svg>
